<svg xmlns="http://www.w3.org/2000/svg" viewBox="0 0 1024 1024">
  <defs>
    <linearGradient id="glass" x1="160" y1="110" x2="850" y2="920" gradientUnits="userSpaceOnUse">
      <stop offset="0" stop-color="#ffffff"/>
      <stop offset="0.52" stop-color="#dff4ff"/>
      <stop offset="1" stop-color="#b9dfff"/>
    </linearGradient>
    <linearGradient id="blue" x1="310" y1="290" x2="730" y2="760" gradientUnits="userSpaceOnUse">
      <stop offset="0" stop-color="#1197ff"/>
      <stop offset="0.58" stop-color="#0877e6"/>
      <stop offset="1" stop-color="#0058bd"/>
    </linearGradient>
    <filter id="shadow" x="-30%" y="-30%" width="160%" height="170%">
      <feDropShadow dx="0" dy="36" stdDeviation="34" flood-color="#173b5c" flood-opacity="0.3"/>
    </filter>
    <filter id="soft" x="-30%" y="-30%" width="160%" height="160%">
      <feDropShadow dx="0" dy="16" stdDeviation="18" flood-color="#075fae" flood-opacity="0.26"/>
    </filter>
  </defs>

  <rect x="108" y="84" width="808" height="808" rx="214" fill="url(#glass)" filter="url(#shadow)"/>
  <rect x="119" y="95" width="786" height="786" rx="203" fill="none" stroke="#ffffff" stroke-width="18" stroke-opacity="0.92"/>
  <path d="M162 315C249 171 410 119 565 128c98 6 195 40 286 114-123-36-249-17-350 24-116 47-204 113-339 49Z" fill="#ffffff" fill-opacity="0.58"/>
  <path d="M168 716c113 93 251 126 397 103 102-16 194-59 286-139-56 129-184 207-339 207-150 0-281-65-344-171Z" fill="#5db7ee" fill-opacity="0.12"/>

  <g filter="url(#soft)" fill="none" stroke="url(#blue)" stroke-width="76" stroke-linecap="round" stroke-linejoin="round">
    <path d="M420 327 268 488l152 161"/>
    <path d="m604 327 152 161-152 161"/>
    <path d="m572 270-120 436"/>
  </g>
  <g fill="none" stroke="#ffffff" stroke-width="13" stroke-linecap="round" stroke-opacity="0.42">
    <path d="M410 310 250 481"/>
    <path d="m614 310 160 171"/>
    <path d="m560 250-126 458"/>
  </g>

  <circle cx="790" cy="718" r="76" fill="#13a79e" filter="url(#soft)"/>
  <path d="m756 718 22 22 47-52" fill="none" stroke="#ffffff" stroke-width="20" stroke-linecap="round" stroke-linejoin="round"/>
</svg>
